<svg xmlns="http://www.w3.org/2000/svg" xmlns:xlink="http://www.w3.org/1999/xlink" viewBox="0 0 68 54.27"><defs><style>.cls-1{fill:#fff;}.cls-2{fill:url(#linear-gradient);}.cls-3{fill:url(#linear-gradient-2);}.cls-4{mask:url(#mask);}.cls-5{opacity:0.05;}.cls-6{fill:#333;}</style><linearGradient id="linear-gradient" x1="37.37" y1="26.79" x2="3.69" y2="26.79" gradientUnits="userSpaceOnUse"><stop offset="0.29" stop-color="#fff"/><stop offset="0.46" stop-color="#e4e5e6"/><stop offset="0.66" stop-color="#cdcfd0"/><stop offset="0.84" stop-color="#c0c2c3"/><stop offset="1" stop-color="#bbbdbf"/></linearGradient><linearGradient id="linear-gradient-2" x1="48.01" y1="21.7" x2="21.71" y2="38.77" gradientUnits="userSpaceOnUse"><stop offset="0" stop-color="#fff"/><stop offset="0.24" stop-color="#e4e5e6"/><stop offset="0.52" stop-color="#cdcfd0"/><stop offset="0.77" stop-color="#c0c2c3"/><stop offset="1" stop-color="#bbbdbf"/></linearGradient><mask id="mask" x="26.81" y="0" width="41.19" height="47.63" maskUnits="userSpaceOnUse"><path class="cls-1" d="M62.28,18.49a14.28,14.28,0,0,1-5.6,11.29c-4.18,3.19-9.38,2.77-14.25,4a46.79,46.79,0,0,0-9.82,3.44c-2.27,1.18-5.23,3.09-5.23,6V4.29H48.05A14.21,14.21,0,0,1,62.28,18.49Z"/></mask></defs><title>Asset 1</title><g id="Layer_2" data-name="Layer 2"><g id="Layer_1-2" data-name="Layer 1"><polygon class="cls-2" points="2.99 10.34 2.99 43.24 36.67 43.24 2.99 10.34"/><polygon class="cls-3" points="27.37 4.29 39.47 4.29 62.28 43.23 27.37 43.23 27.37 4.29"/><path class="cls-1" d="M62.28,18.49a14.28,14.28,0,0,1-5.6,11.29c-4.18,3.19-9.38,2.77-14.25,4a46.79,46.79,0,0,0-9.82,3.44c-2.27,1.18-5.23,3.09-5.23,6V4.29H48.05A14.21,14.21,0,0,1,62.28,18.49Z"/><path class="cls-1" d="M62.28,18.49a14.28,14.28,0,0,1-5.6,11.29c-4.18,3.19-9.38,2.77-14.25,4a46.79,46.79,0,0,0-9.82,3.44c-2.27,1.18-5.23,3.09-5.23,6V4.29H48.05A14.21,14.21,0,0,1,62.28,18.49Z"/><g class="cls-4"><polygon class="cls-5" points="26.81 47.63 26.81 0 68 0 26.81 47.63"/></g><path class="cls-1" d="M11.61,37.32C9.36,38.5,3,40.39,3,43.24v-39h33.6Z"/><path d="M36.58,4.28"/><path class="cls-6" d="M2.55,48.61l.31.32-.68.64-.68.64,1.64,2.25h-.6l-1.4-1.9-.61.56v1.34H0v-7.2H.52v5.25l1-.94Z"/><path class="cls-6" d="M7.58,52a2.06,2.06,0,0,1-.64.39,2.1,2.1,0,0,1-.76.14,2,2,0,0,1-.78-.15A2,2,0,0,1,4.77,52a2,2,0,0,1-.42-.62,1.89,1.89,0,0,1-.15-.76,1.93,1.93,0,0,1,.15-.77,2,2,0,0,1,1-1.05,1.89,1.89,0,0,1,.76-.15A1.64,1.64,0,0,1,7.24,49a2.22,2.22,0,0,1,.67,1l-.71.28-.8.32-.81.33-.75.31A1.42,1.42,0,0,0,6.16,52a1.61,1.61,0,0,0,.57-.1,1.35,1.35,0,0,0,.46-.28Zm-.32-2.2a1.23,1.23,0,0,0-.45-.5,1.19,1.19,0,0,0-.65-.18,1.37,1.37,0,0,0-.56.12,1.53,1.53,0,0,0-.46.32,1.47,1.47,0,0,0-.31.46,1.36,1.36,0,0,0-.11.55,1.09,1.09,0,0,0,0,.26l.62-.25L6,50.31,6.67,50Z"/><path class="cls-6" d="M9.52,48.71H10l0,1a1.83,1.83,0,0,1,.61-.76,1.61,1.61,0,0,1,1-.29,1.22,1.22,0,0,1,.88.31,1.14,1.14,0,0,1,.34.82v2.72h-.52V49.93a.8.8,0,0,0-.85-.79,1.51,1.51,0,0,0-.55.1,1.39,1.39,0,0,0-.45.28,1.27,1.27,0,0,0-.3.42,1.31,1.31,0,0,0-.11.54v2H9.52Z"/><path class="cls-6" d="M16.76,49.27a1.65,1.65,0,0,0-.54.09,1.49,1.49,0,0,0-.46.25,1.2,1.2,0,0,0-.32.39,1.11,1.11,0,0,0-.12.51v2h-.52V48.71h.44l0,1a1.67,1.67,0,0,1,.29-.44,2,2,0,0,1,.39-.33,1.93,1.93,0,0,1,.44-.21,1.41,1.41,0,0,1,.44-.08Z"/><path class="cls-6" d="M18.2,47.34a.35.35,0,0,1,.12-.27.38.38,0,0,1,.26-.11.38.38,0,0,1,.37.38.35.35,0,0,1-.11.27.37.37,0,0,1-.25.1.38.38,0,0,1-.26-.1A.35.35,0,0,1,18.2,47.34Zm.63,5.12h-.52V48.71h.52Z"/><path class="cls-6" d="M23.5,51.72l.32.39a1.92,1.92,0,0,1-.57.32,2,2,0,0,1-.67.11,2,2,0,0,1-.78-.15,2,2,0,0,1-.63-.42,2,2,0,0,1-.42-.62,1.89,1.89,0,0,1-.15-.76,2,2,0,0,1,.58-1.39,2,2,0,0,1,.63-.42,2,2,0,0,1,.78-.16,2,2,0,0,1,.68.11,1.91,1.91,0,0,1,.57.32l-.16.19-.17.19a1.42,1.42,0,0,0-.92-.31,1.49,1.49,0,0,0-1,.42,1.39,1.39,0,0,0-.31.46,1.48,1.48,0,0,0-.11.58,1.42,1.42,0,0,0,.11.56,1.43,1.43,0,0,0,.78.77,1.47,1.47,0,0,0,.58.11A1.42,1.42,0,0,0,23.5,51.72Z"/><path class="cls-6" d="M28.06,48.61l.31.32-.68.64-.68.64,1.64,2.25H28l-1.4-1.9-.61.56v1.34h-.52v-7.2H26v5.25l1-.94Z"/><path class="cls-6" d="M35.17,49.27a1.65,1.65,0,0,0-.54.09,1.49,1.49,0,0,0-.46.25,1.2,1.2,0,0,0-.32.39,1.11,1.11,0,0,0-.12.51v2h-.52V48.71h.44l0,1a1.67,1.67,0,0,1,.29-.44,2,2,0,0,1,.39-.33,1.93,1.93,0,0,1,.44-.21,1.41,1.41,0,0,1,.44-.08Z"/><path class="cls-6" d="M36.32,50.61a1.93,1.93,0,0,1,.15-.77,2.05,2.05,0,0,1,.42-.63,2,2,0,0,1,.63-.43,1.89,1.89,0,0,1,.76-.16,1.79,1.79,0,0,1,.53.08,1.71,1.71,0,0,1,.44.2,1.51,1.51,0,0,1,.32.28,1.26,1.26,0,0,1,.2.31l0-.78h.48v3.76h-.52v-.39c0-.07,0-.13,0-.2s0-.12,0-.18a1.05,1.05,0,0,1-.2.31,1.57,1.57,0,0,1-.32.27,1.67,1.67,0,0,1-.44.19,1.92,1.92,0,0,1-.54.07,2,2,0,0,1-.79-.15,1.92,1.92,0,0,1-.62-.42,2,2,0,0,1-.41-.62A1.89,1.89,0,0,1,36.32,50.61Zm.52,0a1.44,1.44,0,0,0,.89,1.34,1.53,1.53,0,0,0,1.16,0,1.44,1.44,0,0,0,.89-1.34,1.42,1.42,0,0,0-.11-.56,1.46,1.46,0,0,0-.31-.46,1.44,1.44,0,0,0-.47-.31,1.5,1.5,0,0,0-1.62.31A1.4,1.4,0,0,0,37,50,1.44,1.44,0,0,0,36.84,50.58Z"/><path class="cls-6" d="M42.34,48.71h.44c0,.06,0,.13,0,.22s0,.18,0,.28,0,.19,0,.27,0,.15,0,.19a1.87,1.87,0,0,1,.59-.76,1.57,1.57,0,0,1,.94-.3,1.24,1.24,0,0,1,.85.28,1.11,1.11,0,0,1,.38.73,1.89,1.89,0,0,1,.59-.72,1.57,1.57,0,0,1,.93-.28,1.23,1.23,0,0,1,.89.31,1.14,1.14,0,0,1,.34.82v2.72h-.52V49.93a.8.8,0,0,0-.85-.79,1.45,1.45,0,0,0-.54.1,1.33,1.33,0,0,0-.43.27,1.25,1.25,0,0,0-.29.41,1.43,1.43,0,0,0-.11.52v2h-.52V49.93a.85.85,0,0,0-.23-.55.84.84,0,0,0-.61-.24,1.48,1.48,0,0,0-.55.1,1.34,1.34,0,0,0-.44.28,1.25,1.25,0,0,0-.29.42,1.36,1.36,0,0,0-.1.54v2h-.52Z"/><path class="cls-6" d="M52.31,49.06l-.28.37a.68.68,0,0,0-.3-.19,1.18,1.18,0,0,0-.45-.09l-.2,0a.64.64,0,0,0-.2.09.52.52,0,0,0-.15.16.45.45,0,0,0-.06.24.45.45,0,0,0,.13.34,1.23,1.23,0,0,0,.33.22l.43.18a2.37,2.37,0,0,1,.43.21,1.09,1.09,0,0,1,.33.32.86.86,0,0,1,.13.49,1.09,1.09,0,0,1-.32.79,1.22,1.22,0,0,1-.91.32,2,2,0,0,1-.65-.11,1.19,1.19,0,0,1-.54-.36l.09-.1.1-.12.08-.1,0,0a.35.35,0,0,0,.12.1l.22.11.26.09a1.06,1.06,0,0,0,.27,0,1,1,0,0,0,.24,0,.72.72,0,0,0,.23-.11.59.59,0,0,0,.17-.19.53.53,0,0,0,.07-.27.46.46,0,0,0-.13-.34,1.23,1.23,0,0,0-.33-.22L51,50.7a2.09,2.09,0,0,1-.43-.2,1.06,1.06,0,0,1-.33-.32.9.9,0,0,1-.13-.51,1,1,0,0,1,.1-.47,1,1,0,0,1,.63-.5,1.45,1.45,0,0,1,.39-.06,1.62,1.62,0,0,1,.54.1A1.35,1.35,0,0,1,52.31,49.06Z"/><path class="cls-6" d="M53.93,50.61a1.93,1.93,0,0,1,.15-.77,2.05,2.05,0,0,1,.42-.63,2,2,0,0,1,.63-.43,1.89,1.89,0,0,1,.76-.16,1.79,1.79,0,0,1,.53.08,1.71,1.71,0,0,1,.44.2,1.51,1.51,0,0,1,.32.28,1.26,1.26,0,0,1,.2.31l0-.78h.48v3.76h-.52v-.39c0-.07,0-.13,0-.2s0-.12,0-.18a1.05,1.05,0,0,1-.2.31,1.57,1.57,0,0,1-.32.27,1.67,1.67,0,0,1-.44.19,1.92,1.92,0,0,1-.54.07,2,2,0,0,1-.79-.15,1.92,1.92,0,0,1-.62-.42,2,2,0,0,1-.41-.62A1.89,1.89,0,0,1,53.93,50.61Zm.52,0a1.44,1.44,0,0,0,.89,1.34,1.53,1.53,0,0,0,1.16,0,1.44,1.44,0,0,0,.89-1.34,1.42,1.42,0,0,0-.11-.56,1.46,1.46,0,0,0-.31-.46,1.44,1.44,0,0,0-.47-.31,1.5,1.5,0,0,0-1.62.31,1.4,1.4,0,0,0-.31.46A1.44,1.44,0,0,0,54.44,50.58Z"/><path class="cls-6" d="M60.8,54.27h-.55l.22-.47.19-.45.2-.47.25-.56q-.43-.87-.85-1.8t-.85-1.81H60q.28.56.49,1l.37.82.3.69.26.62q.13-.3.26-.62t.29-.69l.37-.82q.21-.45.49-1h.56Z"/></g></g></svg>